#!OML:ASF H:\Dans Jumps\Project 1\Capture day 1\Session 1\subject.ASF
:FULLY-SPECIFIED
:DEGREES
226
root 0.192334 15.5495 -3.67678 -6.25077 0.489411 -2.83974
lowerback 6.17541 -1.05707 -1.77477
upperback 5.51389 -1.50708 2.01139
thorax 2.33319 -0.852702 3.13073
lowerneck -10.581 1.01177 0.074375
upperneck 35.2972 1.53062 -0.249165
head 13.7117 0.630531 0.105587
rclavicle -4.21175e-015 1.67973e-014
rhumerus -14.9637 -9.32537 -83.2414
rradius 24.2625
rwrist 33.3499
rhand -25.9316 -27.77
rfingers 7.12502
rthumb 0.611763 -57.7489
lclavicle -4.21175e-015 1.67973e-014
lhumerus -8.77379 -0.918548 89.2032
lradius 19.9151
lwrist 15.5063
lhand -31.5059 -10.4114
lfingers 7.12502
lthumb -4.77168 19.5149
rfemur -26.8001 -7.07655 20.733
rtibia 64.5301
rfoot -27.9847 -2.99209
rtoes -0.719573
lfemur -29.9306 7.04346 -13.9544
ltibia 62.8743
lfoot -23.5011 4.74344
ltoes -14.162
227
root 0.203639 15.5363 -3.64572 -5.81906 0.349356 -2.80106
lowerback 6.02957 -1.06892 -1.66524
upperback 5.39634 -1.51701 2.0445
thorax 2.29005 -0.852829 3.10158
lowerneck -10.5502 1.03825 0.119449
upperneck 35.5647 1.56358 -0.266185
head 13.8262 0.646741 0.0960637
rclavicle 4.14093e-014 -2.69353e-014
rhumerus -14.9245 -9.09141 -83.1781
rradius 24.2517
rwrist 33.5607
rhand -25.8504 -27.6916
rfingers 7.12502
rthumb 0.690275 -57.6702
lclavicle 4.14093e-014 -2.69353e-014
lhumerus -8.7228 -1.22085 89.0881
lradius 19.9291
lwrist 15.6043
lhand -31.3321 -10.2005
lfingers 7.12502
lthumb -4.60387 19.7295
rfemur -27.4213 -7.10003 20.7536
rtibia 64.9684
rfoot -28.0194 -3.09188
rtoes -0.685648
lfemur -30.3455 6.77989 -14.065
ltibia 63.0961
lfoot -23.6661 5.27282
ltoes -14.3841
228
root 0.21589 15.5306 -3.61993 -5.26376 0.12189 -2.69383
lowerback 5.81574 -1.05395 -1.60987
upperback 5.26224 -1.49269 2.057
thorax 2.2663 -0.83722 3.07899
lowerneck -10.5448 1.05581 0.158544
upperneck 35.8061 1.58572 -0.287201
head 13.9354 0.656877 0.08445
rclavicle 7.50412e-015 -6.75868e-015
rhumerus -14.9315 -8.9997 -83.1187
rradius 24.2924
rwrist 33.7878
rhand -25.73 -27.6271
rfingers 7.12502
rthumb 0.806556 -57.6054
lclavicle 7.50412e-015 -6.75868e-015
lhumerus -8.68683 -1.47756 88.9558
lradius 19.9649
lwrist 15.6341
lhand -31.1486 -9.98978
lfingers 7.12502
lthumb -4.42663 19.944
rfemur -28.217 -6.9736 20.7498
rtibia 65.3982
rfoot -27.9416 -3.25297
rtoes -0.559887
lfemur -30.848 6.50035 -14.2516
ltibia 63.2244
lfoot -23.7585 5.7911
ltoes -14.4767
229
root 0.229121 15.5357 -3.59915 -4.67356 -0.188797 -2.5266
lowerback 5.62014 -1.01508 -1.60491
upperback 5.14288 -1.43859 2.05243
thorax 2.24697 -0.808206 3.06649
lowerneck -10.5658 1.06738 0.188624
upperneck 35.9784 1.60613 -0.324287
head 14.0198 0.663101 0.0675971
rclavicle 2.95941e-014 -2.24627e-014
rhumerus -14.9736 -9.02753 -83.066
rradius 24.4075
rwrist 33.8995
rhand -25.6168 -27.5637
rfingers 7.12502
rthumb 0.915834 -57.5415
lclavicle 2.95941e-014 -2.24627e-014
lhumerus -8.67032 -1.65943 88.8073
lradius 20.0621
lwrist 15.6415
lhand -30.9708 -9.80706
lfingers 7.12502
lthumb -4.25492 20.1302
rfemur -29.0583 -6.72551 20.7083
rtibia 65.7651
rfoot -27.7424 -3.45817
rtoes -0.440898
lfemur -31.3163 6.22913 -14.494
ltibia 63.2195
lfoot -23.7752 6.26041
ltoes -14.4499
230
root 0.243238 15.5517 -3.58365 -4.11171 -0.577497 -2.32669
lowerback 5.50776 -0.955657 -1.62535
upperback 5.05587 -1.35871 2.0376
thorax 2.21383 -0.76712 3.05848
lowerneck -10.5969 1.07772 0.213255
upperneck 36.0542 1.63356 -0.385251
head 14.0627 0.668852 0.0428048
rclavicle 9.16894e-015 4.96962e-015
rhumerus -15.0406 -9.14791 -83.0234
rradius 24.5923
rwrist 33.8165
rhand -25.5544 -27.4868
rfingers 7.12502
rthumb 0.976088 -57.4643
lclavicle 9.16894e-015 4.96962e-015
lhumerus -8.68234 -1.78037 88.6443
lradius 20.2518
lwrist 15.7246
lhand -30.832 -9.65675
lfingers 7.12502
lthumb -4.12088 20.2831
rfemur -29.8537 -6.3779 20.6371
rtibia 66.0291
rfoot -27.4243 -3.6494
rtoes -0.269996
lfemur -31.6771 5.99147 -14.7542
ltibia 63.0645
lfoot -23.7269 6.64416
ltoes -14.3033
231
root 0.258555 15.578 -3.57274 -3.61681 -1.03141 -2.10507
lowerback 5.51013 -0.882248 -1.65605
upperback 5.0089 -1.26157 2.01219
thorax 2.15733 -0.717734 3.04672
lowerneck -10.6372 1.09326 0.236125
upperneck 36.0394 1.67699 -0.470877
head 14.0666 0.678376 0.0104987
rclavicle 3.18055e-015 1.68967e-014
rhumerus -15.1187 -9.33797 -82.9943
rradius 24.8154
rwrist 33.5592
rhand -25.5335 -27.4228
rfingers 7.12502
rthumb 0.996311 -57.4002
lclavicle 3.18055e-015 1.68967e-014
lhumerus -8.71809 -1.82768 88.4648
lradius 20.5254
lwrist 15.919
lhand -30.7416 -9.5527
lfingers 7.12502
lthumb -4.0336 20.3889
rfemur -30.5454 -5.96668 20.5323
rtibia 66.1644
rfoot -27.0002 -3.812
rtoes -0.0937374
lfemur -31.8845 5.79976 -15.0199
ltibia 62.7578
lfoot -23.6358 6.93445
ltoes -14.0397
232
root 0.274995 15.6115 -3.56623 -3.19245 -1.5415 -1.89758
lowerback 5.62716 -0.801956 -1.66884
upperback 5.00203 -1.156 1.99077
thorax 2.07784 -0.66392 3.03034
lowerneck -10.6734 1.11806 0.247067
upperneck 35.9322 1.74376 -0.578124
head 14.0275 0.693981 -0.0251677
rclavicle 1.7667e-014 -1.96797e-014
rhumerus -15.183 -9.54992 -82.9757
rradius 25.0259
rwrist 33.1618
rhand -25.5846 -27.3298
rfingers 7.12502
rthumb 0.946923 -57.3074
lclavicle 1.7667e-014 -1.96797e-014
lhumerus -8.75696 -1.7677 88.2752
lradius 20.8432
lwrist 16.2285
lhand -30.7067 -9.50635
lfingers 7.12502
lthumb -3.9999 20.4358
rfemur -31.1195 -5.50338 20.4254
rtibia 66.1628
rfoot -26.5049 -3.91221
rtoes 0.219897
lfemur -31.9561 5.67564 -15.2543
ltibia 62.3252
lfoot -23.5125 7.13727
ltoes -13.6975
233
root 0.2927 15.6504 -3.56277 -2.82979 -2.09723 -1.71253
lowerback 5.83712 -0.71849 -1.6493
upperback 5.0268 -1.04612 1.96967
thorax 1.97864 -0.607222 2.99681
lowerneck -10.7047 1.15496 0.272736
upperneck 35.7614 1.83422 -0.715657
head 13.9592 0.718202 -0.0721739
rclavicle 1.56046e-014 -1.43125e-014
rhumerus -15.2279 -9.78614 -82.9652
rradius 25.1918
rwrist 32.772
rhand -25.631 -27.2641
rfingers 7.12502
rthumb 0.902161 -57.2419
lclavicle 1.56046e-014 -1.43125e-014
lhumerus -8.78174 -1.63629 88.0715
lradius 21.154
lwrist 16.6778
lhand -30.7414 -9.51711
lfingers 7.12502
lthumb -4.03345 20.4245
rfemur -31.5752 -5.00787 20.3221
rtibia 66.0176
rfoot -25.975 -3.96085
rtoes 0.65031
lfemur -31.9119 5.63387 -15.4574
ltibia 61.7913
lfoot -23.3674 7.27564
ltoes -13.3089
234
root 0.311113 15.6936 -3.56175 -2.50655 -2.68715 -1.56002
lowerback 6.10931 -0.63619 -1.59639
upperback 5.07537 -0.937252 1.9552
thorax 1.86945 -0.550444 2.95152
lowerneck -10.7356 1.20586 0.297933
upperneck 35.5578 1.94787 -0.862884
head 13.8769 0.751366 -0.119397
rclavicle -6.31141e-015 2.14687e-014
rhumerus -15.2404 -10.0401 -82.9542
rradius 25.2745
rwrist 32.5048
rhand -25.6552 -27.2181
rfingers 7.12502
rthumb 0.878758 -57.196
lclavicle -6.31141e-015 2.14687e-014
lhumerus -8.76572 -1.41257 87.8573
lradius 21.3977
lwrist 17.1831
lhand -30.8304 -9.57713
lfingers 7.12502
lthumb -4.1194 20.3628
rfemur -31.9256 -4.48319 20.2331
rtibia 65.7253
rfoot -25.451 -3.94781
rtoes 1.29399
lfemur -31.794 5.68584 -15.6252
ltibia 61.184
lfoot -23.2045 7.35724
ltoes -12.8603
235
root 0.329375 15.74 -3.56262 -2.19364 -3.29301 -1.43979
lowerback 6.41106 -0.559525 -1.51984
upperback 5.13463 -0.83507 1.94728
thorax 1.75553 -0.496633 2.89957
lowerneck -10.7652 1.26873 0.316108
upperneck 35.3415 2.07888 -1.00687
head 13.7894 0.791731 -0.161302
rclavicle 5.76476e-015 7.7526e-015
rhumerus -15.2258 -10.299 -82.9403
rradius 25.2658
rwrist 32.425
rhand -25.6313 -27.1995
rfingers 7.12502
rthumb 0.901892 -57.1773
lclavicle 5.76476e-015 7.7526e-015
lhumerus -8.69548 -1.10495 87.6319
lradius 21.5335
lwrist 17.6751
lhand -30.9483 -9.66333
lfingers 7.12502
lthumb -4.23319 20.2744
rfemur -32.1987 -3.94081 20.1631
rtibia 65.2841
rfoot -24.9526 -3.90966
rtoes 2.07472
lfemur -31.6499 5.82934 -15.7652
ltibia 60.5239
lfoot -23.0203 7.38963
ltoes -12.3513
236
root 0.346453 15.7892 -3.56467 -1.86539 -3.89208 -1.34148
lowerback 6.70561 -0.493372 -1.44078
upperback 5.19535 -0.746454 1.94391
thorax 1.64851 -0.449816 2.85074
lowerneck -10.8005 1.33864 0.33064
upperneck 35.1359 2.22011 -1.14963
head 13.7088 0.836206 -0.200322
rclavicle 2.5842e-015 -1.98785e-015
rhumerus -15.1956 -10.5688 -82.9218
rradius 25.1692
rwrist 32.5572
rhand -25.5895 -27.1848
rfingers 7.12502
rthumb 0.94223 -57.1625
lclavicle 2.5842e-015 -1.98785e-015
lhumerus -8.5716 -0.72143 87.3958
lradius 21.5474
lwrist 18.0653
lhand -31.0411 -9.804
lfingers 7.12502
lthumb -4.32286 20.1319
rfemur -32.4143 -3.3941 20.1026
rtibia 64.6989
rfoot -24.5047 -3.85606
rtoes 3.00299
lfemur -31.5183 6.04352 -15.8928
ltibia 59.8286
lfoot -22.8207 7.37723
ltoes -11.7665
237
root 0.36147 15.8405 -3.56775 -1.49965 -4.46205 -1.26275
lowerback 6.96763 -0.4422 -1.36838
upperback 5.24864 -0.67752 1.94399
thorax 1.55359 -0.413219 2.80931
lowerneck -10.8276 1.41217 0.334691
upperneck 34.9347 2.36422 -1.27984
head 13.6289 0.882336 -0.231948
rclavicle -3.8763e-015 -2.38542e-015
rhumerus -15.1574 -10.8548 -82.9
rradius 24.9958
rwrist 32.871
rhand -25.5365 -27.1551
rfingers 7.12502
rthumb 0.993419 -57.1325
lclavicle -3.8763e-015 -2.38542e-015
lhumerus -8.39955 -0.282231 87.147
lradius 21.442
lwrist 18.2705
lhand -31.1254 -9.93853
lfingers 7.12502
lthumb -4.40419 19.9957
rfemur -32.5983 -2.85909 20.055
rtibia 63.981
rfoot -24.1135 -3.8274
rtoes 3.94824
lfemur -31.4361 6.30119 -16.0111
ltibia 59.1147
lfoot -22.6074 7.31735
ltoes -11.1083
238
root 0.373873 15.8924 -3.57153 -1.08179 -4.98192 -1.20662
lowerback 7.18298 -0.410649 -1.30215
upperback 5.28317 -0.634262 1.94837
thorax 1.46696 -0.389642 2.7764
lowerneck -10.8413 1.48813 0.328697
upperneck 34.7468 2.50799 -1.39297
head 13.5522 0.929366 -0.255044
rclavicle 1.35671e-014 1.43125e-014
rhumerus -15.1429 -11.1477 -82.873
rradius 24.7851
rwrist 33.2993
rhand -25.4843 -27.1036
rfingers 7.12502
rthumb 1.04385 -57.0808
lclavicle 1.35671e-014 1.43125e-014
lhumerus -8.20148 0.194044 86.8861
lradius 21.2355
lwrist 18.2489
lhand -31.1848 -10.0276
lfingers 7.12502
lthumb -4.46159 19.9054
rfemur -32.7686 -2.34822 20.0265
rtibia 63.1529
rfoot -23.7867 -3.83838
rtoes 4.88247
lfemur -31.431 6.5726 -16.1154
ltibia 58.3995
lfoot -22.3834 7.21204
ltoes -10.4144
